<mxfile host="app.diagrams.net" modified="2024-06-10T14:28:30.402Z" agent="Mozilla/5.0 (Windows NT 10.0; Win64; x64) AppleWebKit/537.36 (KHTML, like Gecko) Chrome/125.0.0.0 Safari/537.36" etag="UFptt7wZoZaS6lLaDLHj" version="24.5.2" type="google">
  <diagram name="Page-1" id="nfIPqB0qUqdK0kqYzit8">
    <mxGraphModel grid="1" page="1" gridSize="10" guides="1" tooltips="1" connect="1" arrows="1" fold="1" pageScale="1" pageWidth="827" pageHeight="1169" math="0" shadow="0">
      <root>
        <mxCell id="0" />
        <mxCell id="1" parent="0" />
        <mxCell id="olprAq7_Rl8-AMHpSV2B-3" value="" style="edgeStyle=orthogonalEdgeStyle;rounded=0;orthogonalLoop=1;jettySize=auto;html=1;" edge="1" parent="1" source="olprAq7_Rl8-AMHpSV2B-1" target="olprAq7_Rl8-AMHpSV2B-2">
          <mxGeometry relative="1" as="geometry" />
        </mxCell>
        <mxCell id="olprAq7_Rl8-AMHpSV2B-1" value="START" style="ellipse;whiteSpace=wrap;html=1;" vertex="1" parent="1">
          <mxGeometry x="40" y="40" width="120" height="80" as="geometry" />
        </mxCell>
        <mxCell id="olprAq7_Rl8-AMHpSV2B-8" value="" style="edgeStyle=orthogonalEdgeStyle;rounded=0;orthogonalLoop=1;jettySize=auto;html=1;" edge="1" parent="1" source="olprAq7_Rl8-AMHpSV2B-2" target="olprAq7_Rl8-AMHpSV2B-4">
          <mxGeometry relative="1" as="geometry" />
        </mxCell>
        <mxCell id="olprAq7_Rl8-AMHpSV2B-2" value="" style="shape=parallelogram;perimeter=parallelogramPerimeter;whiteSpace=wrap;html=1;fixedSize=1;" vertex="1" parent="1">
          <mxGeometry x="220" y="50" width="120" height="60" as="geometry" />
        </mxCell>
        <mxCell id="olprAq7_Rl8-AMHpSV2B-11" value="" style="edgeStyle=orthogonalEdgeStyle;rounded=0;orthogonalLoop=1;jettySize=auto;html=1;" edge="1" parent="1" source="olprAq7_Rl8-AMHpSV2B-4" target="olprAq7_Rl8-AMHpSV2B-5">
          <mxGeometry relative="1" as="geometry" />
        </mxCell>
        <mxCell id="olprAq7_Rl8-AMHpSV2B-21" value="" style="edgeStyle=orthogonalEdgeStyle;rounded=0;orthogonalLoop=1;jettySize=auto;html=1;" edge="1" parent="1" source="olprAq7_Rl8-AMHpSV2B-4" target="olprAq7_Rl8-AMHpSV2B-15">
          <mxGeometry relative="1" as="geometry" />
        </mxCell>
        <mxCell id="olprAq7_Rl8-AMHpSV2B-4" value="disc === &quot;FAZZFOOD50&quot; &amp;amp;&amp;amp; price&amp;nbsp; &amp;gt;= 50000" style="rhombus;whiteSpace=wrap;html=1;" vertex="1" parent="1">
          <mxGeometry x="400" y="40" width="80" height="80" as="geometry" />
        </mxCell>
        <mxCell id="olprAq7_Rl8-AMHpSV2B-13" value="" style="edgeStyle=orthogonalEdgeStyle;rounded=0;orthogonalLoop=1;jettySize=auto;html=1;" edge="1" parent="1" source="olprAq7_Rl8-AMHpSV2B-5" target="olprAq7_Rl8-AMHpSV2B-6">
          <mxGeometry relative="1" as="geometry" />
        </mxCell>
        <mxCell id="olprAq7_Rl8-AMHpSV2B-22" value="" style="edgeStyle=orthogonalEdgeStyle;rounded=0;orthogonalLoop=1;jettySize=auto;html=1;" edge="1" parent="1" source="olprAq7_Rl8-AMHpSV2B-5" target="olprAq7_Rl8-AMHpSV2B-18">
          <mxGeometry relative="1" as="geometry" />
        </mxCell>
        <mxCell id="olprAq7_Rl8-AMHpSV2B-5" value="disc === &quot;DITRAKTIR60&quot; &amp;amp;&amp;amp; price &amp;gt;= 25000" style="rhombus;whiteSpace=wrap;html=1;" vertex="1" parent="1">
          <mxGeometry x="560" y="40" width="80" height="80" as="geometry" />
        </mxCell>
        <mxCell id="olprAq7_Rl8-AMHpSV2B-23" value="" style="edgeStyle=orthogonalEdgeStyle;rounded=0;orthogonalLoop=1;jettySize=auto;html=1;" edge="1" parent="1" source="olprAq7_Rl8-AMHpSV2B-6" target="olprAq7_Rl8-AMHpSV2B-19">
          <mxGeometry relative="1" as="geometry" />
        </mxCell>
        <mxCell id="olprAq7_Rl8-AMHpSV2B-28" value="" style="edgeStyle=orthogonalEdgeStyle;rounded=0;orthogonalLoop=1;jettySize=auto;html=1;" edge="1" parent="1" source="olprAq7_Rl8-AMHpSV2B-6" target="olprAq7_Rl8-AMHpSV2B-27">
          <mxGeometry relative="1" as="geometry" />
        </mxCell>
        <mxCell id="olprAq7_Rl8-AMHpSV2B-6" value="disc === &quot;&quot;|| disc === null" style="rhombus;whiteSpace=wrap;html=1;" vertex="1" parent="1">
          <mxGeometry x="720" y="40" width="80" height="80" as="geometry" />
        </mxCell>
        <mxCell id="olprAq7_Rl8-AMHpSV2B-35" value="" style="edgeStyle=orthogonalEdgeStyle;rounded=0;orthogonalLoop=1;jettySize=auto;html=1;" edge="1" parent="1" source="olprAq7_Rl8-AMHpSV2B-15" target="olprAq7_Rl8-AMHpSV2B-30">
          <mxGeometry relative="1" as="geometry" />
        </mxCell>
        <mxCell id="olprAq7_Rl8-AMHpSV2B-15" value="userDisc = price * 50/100" style="rounded=0;whiteSpace=wrap;html=1;" vertex="1" parent="1">
          <mxGeometry x="380" y="150" width="120" height="60" as="geometry" />
        </mxCell>
        <mxCell id="olprAq7_Rl8-AMHpSV2B-36" value="" style="edgeStyle=orthogonalEdgeStyle;rounded=0;orthogonalLoop=1;jettySize=auto;html=1;" edge="1" parent="1" source="olprAq7_Rl8-AMHpSV2B-18" target="olprAq7_Rl8-AMHpSV2B-31">
          <mxGeometry relative="1" as="geometry" />
        </mxCell>
        <mxCell id="olprAq7_Rl8-AMHpSV2B-18" value="userDisc = price * 60/100" style="rounded=0;whiteSpace=wrap;html=1;" vertex="1" parent="1">
          <mxGeometry x="540" y="150" width="120" height="60" as="geometry" />
        </mxCell>
        <mxCell id="olprAq7_Rl8-AMHpSV2B-47" style="edgeStyle=orthogonalEdgeStyle;rounded=0;orthogonalLoop=1;jettySize=auto;html=1;entryX=1;entryY=0.5;entryDx=0;entryDy=0;" edge="1" parent="1" source="olprAq7_Rl8-AMHpSV2B-19" target="olprAq7_Rl8-AMHpSV2B-44">
          <mxGeometry relative="1" as="geometry">
            <Array as="points">
              <mxPoint x="760" y="570" />
            </Array>
          </mxGeometry>
        </mxCell>
        <mxCell id="olprAq7_Rl8-AMHpSV2B-19" value="userDisc = 0" style="rounded=0;whiteSpace=wrap;html=1;" vertex="1" parent="1">
          <mxGeometry x="700" y="150" width="120" height="60" as="geometry" />
        </mxCell>
        <mxCell id="olprAq7_Rl8-AMHpSV2B-79" style="edgeStyle=orthogonalEdgeStyle;rounded=0;orthogonalLoop=1;jettySize=auto;html=1;entryX=1;entryY=0.5;entryDx=0;entryDy=0;" edge="1" parent="1" source="olprAq7_Rl8-AMHpSV2B-27" target="olprAq7_Rl8-AMHpSV2B-73">
          <mxGeometry relative="1" as="geometry" />
        </mxCell>
        <mxCell id="olprAq7_Rl8-AMHpSV2B-27" value="&quot;YOUR DISCOUNT VOUCHER ISN&#39;T VALID OR PRICE IS NOT VALID&quot;" style="shape=parallelogram;perimeter=parallelogramPerimeter;whiteSpace=wrap;html=1;fixedSize=1;" vertex="1" parent="1">
          <mxGeometry x="880" y="50" width="120" height="60" as="geometry" />
        </mxCell>
        <mxCell id="olprAq7_Rl8-AMHpSV2B-41" value="" style="edgeStyle=orthogonalEdgeStyle;rounded=0;orthogonalLoop=1;jettySize=auto;html=1;" edge="1" parent="1" source="olprAq7_Rl8-AMHpSV2B-30" target="olprAq7_Rl8-AMHpSV2B-38">
          <mxGeometry relative="1" as="geometry" />
        </mxCell>
        <mxCell id="olprAq7_Rl8-AMHpSV2B-30" value="userDisc &amp;gt; 50000" style="rhombus;whiteSpace=wrap;html=1;" vertex="1" parent="1">
          <mxGeometry x="400" y="250" width="80" height="80" as="geometry" />
        </mxCell>
        <mxCell id="olprAq7_Rl8-AMHpSV2B-42" value="" style="edgeStyle=orthogonalEdgeStyle;rounded=0;orthogonalLoop=1;jettySize=auto;html=1;" edge="1" parent="1" source="olprAq7_Rl8-AMHpSV2B-31" target="olprAq7_Rl8-AMHpSV2B-39">
          <mxGeometry relative="1" as="geometry" />
        </mxCell>
        <mxCell id="olprAq7_Rl8-AMHpSV2B-31" value="userDisc &amp;gt; 30000" style="rhombus;whiteSpace=wrap;html=1;" vertex="1" parent="1">
          <mxGeometry x="560" y="250" width="80" height="80" as="geometry" />
        </mxCell>
        <mxCell id="olprAq7_Rl8-AMHpSV2B-43" value="" style="edgeStyle=orthogonalEdgeStyle;rounded=0;orthogonalLoop=1;jettySize=auto;html=1;" edge="1" parent="1">
          <mxGeometry relative="1" as="geometry">
            <mxPoint x="760" y="370" as="targetPoint" />
          </mxGeometry>
        </mxCell>
        <mxCell id="olprAq7_Rl8-AMHpSV2B-45" style="edgeStyle=orthogonalEdgeStyle;rounded=0;orthogonalLoop=1;jettySize=auto;html=1;entryX=0;entryY=0.5;entryDx=0;entryDy=0;" edge="1" parent="1" source="olprAq7_Rl8-AMHpSV2B-38" target="olprAq7_Rl8-AMHpSV2B-44">
          <mxGeometry relative="1" as="geometry" />
        </mxCell>
        <mxCell id="olprAq7_Rl8-AMHpSV2B-38" value="userDisc = 50000" style="rounded=0;whiteSpace=wrap;html=1;" vertex="1" parent="1">
          <mxGeometry x="380" y="370" width="120" height="60" as="geometry" />
        </mxCell>
        <mxCell id="olprAq7_Rl8-AMHpSV2B-46" style="edgeStyle=orthogonalEdgeStyle;rounded=0;orthogonalLoop=1;jettySize=auto;html=1;entryX=0.5;entryY=0;entryDx=0;entryDy=0;" edge="1" parent="1" source="olprAq7_Rl8-AMHpSV2B-39" target="olprAq7_Rl8-AMHpSV2B-44">
          <mxGeometry relative="1" as="geometry" />
        </mxCell>
        <mxCell id="olprAq7_Rl8-AMHpSV2B-39" value="userDisc = 30000" style="rounded=0;whiteSpace=wrap;html=1;" vertex="1" parent="1">
          <mxGeometry x="540" y="370" width="120" height="60" as="geometry" />
        </mxCell>
        <mxCell id="olprAq7_Rl8-AMHpSV2B-49" value="" style="edgeStyle=orthogonalEdgeStyle;rounded=0;orthogonalLoop=1;jettySize=auto;html=1;" edge="1" parent="1" source="olprAq7_Rl8-AMHpSV2B-44" target="olprAq7_Rl8-AMHpSV2B-48">
          <mxGeometry relative="1" as="geometry" />
        </mxCell>
        <mxCell id="olprAq7_Rl8-AMHpSV2B-44" value="deliveryFee = 5000" style="rounded=0;whiteSpace=wrap;html=1;" vertex="1" parent="1">
          <mxGeometry x="460" y="540" width="120" height="60" as="geometry" />
        </mxCell>
        <mxCell id="olprAq7_Rl8-AMHpSV2B-51" value="" style="edgeStyle=orthogonalEdgeStyle;rounded=0;orthogonalLoop=1;jettySize=auto;html=1;" edge="1" parent="1" source="olprAq7_Rl8-AMHpSV2B-48" target="olprAq7_Rl8-AMHpSV2B-50">
          <mxGeometry relative="1" as="geometry" />
        </mxCell>
        <mxCell id="olprAq7_Rl8-AMHpSV2B-48" value="distance &amp;gt; 2" style="rhombus;whiteSpace=wrap;html=1;" vertex="1" parent="1">
          <mxGeometry x="480" y="640" width="80" height="80" as="geometry" />
        </mxCell>
        <mxCell id="olprAq7_Rl8-AMHpSV2B-53" value="" style="edgeStyle=orthogonalEdgeStyle;rounded=0;orthogonalLoop=1;jettySize=auto;html=1;" edge="1" parent="1" source="olprAq7_Rl8-AMHpSV2B-50" target="olprAq7_Rl8-AMHpSV2B-52">
          <mxGeometry relative="1" as="geometry" />
        </mxCell>
        <mxCell id="olprAq7_Rl8-AMHpSV2B-50" value="deliveryFee = deliveryFee + (distance - 2) * 3000" style="rounded=0;whiteSpace=wrap;html=1;" vertex="1" parent="1">
          <mxGeometry x="460" y="760" width="120" height="60" as="geometry" />
        </mxCell>
        <mxCell id="olprAq7_Rl8-AMHpSV2B-55" value="" style="edgeStyle=orthogonalEdgeStyle;rounded=0;orthogonalLoop=1;jettySize=auto;html=1;" edge="1" parent="1" source="olprAq7_Rl8-AMHpSV2B-52" target="olprAq7_Rl8-AMHpSV2B-54">
          <mxGeometry relative="1" as="geometry" />
        </mxCell>
        <mxCell id="olprAq7_Rl8-AMHpSV2B-58" style="edgeStyle=orthogonalEdgeStyle;rounded=0;orthogonalLoop=1;jettySize=auto;html=1;entryX=0;entryY=0.5;entryDx=0;entryDy=0;" edge="1" parent="1" source="olprAq7_Rl8-AMHpSV2B-52" target="olprAq7_Rl8-AMHpSV2B-56">
          <mxGeometry relative="1" as="geometry">
            <Array as="points">
              <mxPoint x="700" y="700" />
            </Array>
          </mxGeometry>
        </mxCell>
        <mxCell id="olprAq7_Rl8-AMHpSV2B-52" value="tax = true" style="rhombus;whiteSpace=wrap;html=1;" vertex="1" parent="1">
          <mxGeometry x="660" y="750" width="80" height="80" as="geometry" />
        </mxCell>
        <mxCell id="olprAq7_Rl8-AMHpSV2B-60" style="edgeStyle=orthogonalEdgeStyle;rounded=0;orthogonalLoop=1;jettySize=auto;html=1;entryX=0.5;entryY=1;entryDx=0;entryDy=0;" edge="1" parent="1" source="olprAq7_Rl8-AMHpSV2B-54" target="olprAq7_Rl8-AMHpSV2B-57">
          <mxGeometry relative="1" as="geometry">
            <Array as="points">
              <mxPoint x="1040" y="800" />
            </Array>
          </mxGeometry>
        </mxCell>
        <mxCell id="olprAq7_Rl8-AMHpSV2B-54" value="tax = price * 5/100" style="rounded=0;whiteSpace=wrap;html=1;" vertex="1" parent="1">
          <mxGeometry x="790" y="760" width="120" height="60" as="geometry" />
        </mxCell>
        <mxCell id="olprAq7_Rl8-AMHpSV2B-59" style="edgeStyle=orthogonalEdgeStyle;rounded=0;orthogonalLoop=1;jettySize=auto;html=1;entryX=0.5;entryY=0;entryDx=0;entryDy=0;" edge="1" parent="1" source="olprAq7_Rl8-AMHpSV2B-56" target="olprAq7_Rl8-AMHpSV2B-57">
          <mxGeometry relative="1" as="geometry">
            <Array as="points">
              <mxPoint x="1040" y="690" />
            </Array>
          </mxGeometry>
        </mxCell>
        <mxCell id="olprAq7_Rl8-AMHpSV2B-56" value="tax = 0" style="rounded=0;whiteSpace=wrap;html=1;" vertex="1" parent="1">
          <mxGeometry x="790" y="670" width="120" height="60" as="geometry" />
        </mxCell>
        <mxCell id="olprAq7_Rl8-AMHpSV2B-66" style="edgeStyle=orthogonalEdgeStyle;rounded=0;orthogonalLoop=1;jettySize=auto;html=1;entryX=0;entryY=0.5;entryDx=0;entryDy=0;" edge="1" parent="1" source="olprAq7_Rl8-AMHpSV2B-57" target="olprAq7_Rl8-AMHpSV2B-63">
          <mxGeometry relative="1" as="geometry">
            <Array as="points">
              <mxPoint x="1130" y="750" />
              <mxPoint x="1130" y="630" />
            </Array>
          </mxGeometry>
        </mxCell>
        <mxCell id="olprAq7_Rl8-AMHpSV2B-67" style="edgeStyle=orthogonalEdgeStyle;rounded=0;orthogonalLoop=1;jettySize=auto;html=1;" edge="1" parent="1" source="olprAq7_Rl8-AMHpSV2B-57" target="olprAq7_Rl8-AMHpSV2B-64">
          <mxGeometry relative="1" as="geometry" />
        </mxCell>
        <mxCell id="olprAq7_Rl8-AMHpSV2B-68" style="edgeStyle=orthogonalEdgeStyle;rounded=0;orthogonalLoop=1;jettySize=auto;html=1;entryX=0;entryY=0.5;entryDx=0;entryDy=0;" edge="1" parent="1" source="olprAq7_Rl8-AMHpSV2B-57" target="olprAq7_Rl8-AMHpSV2B-61">
          <mxGeometry relative="1" as="geometry" />
        </mxCell>
        <mxCell id="olprAq7_Rl8-AMHpSV2B-69" style="edgeStyle=orthogonalEdgeStyle;rounded=0;orthogonalLoop=1;jettySize=auto;html=1;entryX=0;entryY=0.5;entryDx=0;entryDy=0;" edge="1" parent="1" source="olprAq7_Rl8-AMHpSV2B-57" target="olprAq7_Rl8-AMHpSV2B-62">
          <mxGeometry relative="1" as="geometry">
            <Array as="points">
              <mxPoint x="1130" y="750" />
              <mxPoint x="1130" y="910" />
            </Array>
          </mxGeometry>
        </mxCell>
        <mxCell id="olprAq7_Rl8-AMHpSV2B-72" style="edgeStyle=orthogonalEdgeStyle;rounded=0;orthogonalLoop=1;jettySize=auto;html=1;entryX=0;entryY=0.5;entryDx=0;entryDy=0;" edge="1" parent="1" source="olprAq7_Rl8-AMHpSV2B-57" target="olprAq7_Rl8-AMHpSV2B-70">
          <mxGeometry relative="1" as="geometry">
            <Array as="points">
              <mxPoint x="1130" y="750" />
              <mxPoint x="1130" y="1010" />
            </Array>
          </mxGeometry>
        </mxCell>
        <mxCell id="olprAq7_Rl8-AMHpSV2B-57" value="let total = price + userDisc + deliveryFee + tax" style="rounded=0;whiteSpace=wrap;html=1;" vertex="1" parent="1">
          <mxGeometry x="980" y="720" width="120" height="60" as="geometry" />
        </mxCell>
        <mxCell id="olprAq7_Rl8-AMHpSV2B-76" style="edgeStyle=orthogonalEdgeStyle;rounded=0;orthogonalLoop=1;jettySize=auto;html=1;entryX=0;entryY=0.5;entryDx=0;entryDy=0;" edge="1" parent="1" source="olprAq7_Rl8-AMHpSV2B-61" target="olprAq7_Rl8-AMHpSV2B-73">
          <mxGeometry relative="1" as="geometry" />
        </mxCell>
        <mxCell id="olprAq7_Rl8-AMHpSV2B-61" value="&quot;Biaya antar : &quot; + deliveryFee" style="shape=parallelogram;perimeter=parallelogramPerimeter;whiteSpace=wrap;html=1;fixedSize=1;" vertex="1" parent="1">
          <mxGeometry x="1160" y="770" width="120" height="60" as="geometry" />
        </mxCell>
        <mxCell id="olprAq7_Rl8-AMHpSV2B-77" style="edgeStyle=orthogonalEdgeStyle;rounded=0;orthogonalLoop=1;jettySize=auto;html=1;entryX=0;entryY=1;entryDx=0;entryDy=0;" edge="1" parent="1" source="olprAq7_Rl8-AMHpSV2B-62" target="olprAq7_Rl8-AMHpSV2B-73">
          <mxGeometry relative="1" as="geometry" />
        </mxCell>
        <mxCell id="olprAq7_Rl8-AMHpSV2B-62" value="&quot;Pajak : &quot; + tax" style="shape=parallelogram;perimeter=parallelogramPerimeter;whiteSpace=wrap;html=1;fixedSize=1;" vertex="1" parent="1">
          <mxGeometry x="1160" y="880" width="120" height="60" as="geometry" />
        </mxCell>
        <mxCell id="olprAq7_Rl8-AMHpSV2B-74" style="edgeStyle=orthogonalEdgeStyle;rounded=0;orthogonalLoop=1;jettySize=auto;html=1;" edge="1" parent="1" source="olprAq7_Rl8-AMHpSV2B-63" target="olprAq7_Rl8-AMHpSV2B-73">
          <mxGeometry relative="1" as="geometry" />
        </mxCell>
        <mxCell id="olprAq7_Rl8-AMHpSV2B-63" value="&quot;Harga : &quot; + price" style="shape=parallelogram;perimeter=parallelogramPerimeter;whiteSpace=wrap;html=1;fixedSize=1;" vertex="1" parent="1">
          <mxGeometry x="1160" y="600" width="120" height="60" as="geometry" />
        </mxCell>
        <mxCell id="olprAq7_Rl8-AMHpSV2B-75" style="edgeStyle=orthogonalEdgeStyle;rounded=0;orthogonalLoop=1;jettySize=auto;html=1;entryX=0;entryY=0;entryDx=0;entryDy=0;" edge="1" parent="1" source="olprAq7_Rl8-AMHpSV2B-64" target="olprAq7_Rl8-AMHpSV2B-73">
          <mxGeometry relative="1" as="geometry" />
        </mxCell>
        <mxCell id="olprAq7_Rl8-AMHpSV2B-64" value="&quot;Potongan : &quot; + userDisc" style="shape=parallelogram;perimeter=parallelogramPerimeter;whiteSpace=wrap;html=1;fixedSize=1;" vertex="1" parent="1">
          <mxGeometry x="1160" y="690" width="120" height="60" as="geometry" />
        </mxCell>
        <mxCell id="olprAq7_Rl8-AMHpSV2B-78" style="edgeStyle=orthogonalEdgeStyle;rounded=0;orthogonalLoop=1;jettySize=auto;html=1;" edge="1" parent="1" source="olprAq7_Rl8-AMHpSV2B-70" target="olprAq7_Rl8-AMHpSV2B-73">
          <mxGeometry relative="1" as="geometry" />
        </mxCell>
        <mxCell id="olprAq7_Rl8-AMHpSV2B-70" value="&quot;Subtotal : &quot; + total" style="shape=parallelogram;perimeter=parallelogramPerimeter;whiteSpace=wrap;html=1;fixedSize=1;" vertex="1" parent="1">
          <mxGeometry x="1160" y="980" width="120" height="60" as="geometry" />
        </mxCell>
        <mxCell id="olprAq7_Rl8-AMHpSV2B-73" value="END" style="ellipse;whiteSpace=wrap;html=1;" vertex="1" parent="1">
          <mxGeometry x="1390" y="760" width="120" height="80" as="geometry" />
        </mxCell>
      </root>
    </mxGraphModel>
  </diagram>
</mxfile>
